<?xml version="1.0" encoding="UTF-8"?>
<svg width="752pt" height="752pt" version="1.1" viewBox="0 0 752 752" xmlns="http://www.w3.org/2000/svg">
 <path d="m475.37 279.17c0 29.176-9.5156 54.441-29.176 75.266-19.344 20.824-42.812 30.973-70.297 30.973s-50.953-10.465-69.98-30.973c-19.027-20.508-29.176-45.668-29.176-75.266 0-29.176 9.5156-54.441 29.176-75.266 19.242-20.719 42.707-30.867 69.875-30.867 27.484 0 50.953 10.465 70.297 30.973 19.453 20.824 29.281 45.668 29.281 75.16m86.684 226.85c0 61.312-38.266 71.145-90.383 72.941v-0.31641c-1.0586 0.31641-2.1133 0.31641-3.1719 0.31641h-188.16-0.84375c-51.586-1.6914-89.535-11.84-89.535-72.941 0-67.125 45.984-122.41 105.71-131.61h0.52734c1.5859-0.31641 3.4883-0.52734 5.0742-0.52734v0.52734c0 0.52734 0 1.1641 0.31641 1.6914 0.31641 3.1719 1.0586 6.0273 2.4297 8.9844 9.0898 24.629 38.266 71.145 55.391 97.465l3.4883-54.969c-5.0742-2.8555-9.4062-7.5039-12.051-12.684-1.9023-3.8047-3.1719-8.1406-3.1719-12.473 0 0 12.789 6.0273 25.898 6.0273h2.1133 2.1133c13.109 0 25.898-6.0273 25.898-6.0273 0 4.3359-1.375 8.3516-3.1719 12.473-2.6445 5.1797-6.9766 9.832-12.051 12.684l3.4883 54.969c17.125-26.32 46.301-72.941 55.391-97.465 1.375-2.8555 2.1133-6.0273 2.4297-8.9844 0-0.52734 0.31641-1.1641 0.31641-1.6914v-0.52734c1.5859 0.31641 3.4883 0.31641 5.0742 0.52734h0.52734c60.371 9.3047 106.36 64.484 106.36 131.61z"/>
</svg>
